<svg width="40" height="40" viewBox="0 0 40 40" fill="none" xmlns="http://www.w3.org/2000/svg">
  <path
    d="M9.9859 19.9856C4.47432 19.9856 0.000359941 24.4693 0.000359457 29.9928L0.000358582 40H9.9859C15.4975 40 19.9714 35.5163 19.9714 29.9928C19.9714 24.4693 15.4975 19.9856 9.9859 19.9856Z"
    fill="#57D9A6" />
  <path
    d="M29.9851 20.0144C35.4966 20.0144 39.9706 15.5307 39.9706 10.0072V0H29.9851C24.4735 0 19.9995 4.48367 19.9995 10.0072C19.9995 15.5307 24.4735 20.0144 29.9851 20.0144Z"
    fill="#57D9A6" />
  <path
    d="M20.0287 10.0072C20.0287 4.49958 15.5418 0.0288086 10.0143 0.0288086H0L4.36482e-07 10.0072C6.77401e-07 15.5149 4.48686 19.9857 10.0143 19.9857C15.5418 19.9857 20.0287 15.5149 20.0287 10.0072Z"
    fill="#57D9A6" />
  <path
    d="M19.9713 29.9641C19.9713 35.4717 24.4582 39.9425 29.9857 39.9425H40V29.9641C40 24.4564 35.5131 19.9857 29.9857 19.9857C24.4582 19.9857 19.9713 24.4564 19.9713 29.9641Z"
    fill="#57D9A6" />
</svg>